<svg xmlns="http://www.w3.org/2000/svg" xmlns:xlink="http://www.w3.org/1999/xlink" width="199.996" height="199.996" viewBox="0 0 199.996 199.996"><defs><style>.a{fill:url(#a);}.b{fill:url(#b);}.c{clip-path:url(#c);}</style><linearGradient id="a" x1="0.209" y1="0.215" x2="0.791" y2="0.776" gradientUnits="objectBoundingBox"><stop offset="0" stop-color="#fdf1cd"/><stop offset="1" stop-color="#ced2d8"/></linearGradient><linearGradient id="b" x1="0.266" y1="0.983" x2="0.266" y2="0.015" gradientUnits="objectBoundingBox"><stop offset="0" stop-color="#0e555a"/><stop offset="1" stop-color="#010c0d"/></linearGradient><clipPath id="c"><path class="a" d="M37.814,142.729l4.832-2.55a22.907,22.907,0,0,0,12.212-20.257V89.145a2.639,2.639,0,0,1,5.279,0v30.777a22.909,22.909,0,0,0,12.212,20.257l4.832,2.55a.593.593,0,0,1-.277,1.118H38.092a.593.593,0,0,1-.278-1.118M70.7,36.078a8.81,8.81,0,0,1,8.788,8.253h-.009c.016.227.025.456.025.684a8.8,8.8,0,0,1-17.6,0c0-.232.009-.462.026-.684H61.91A8.81,8.81,0,0,1,70.7,36.078M9.264,28.147a.8.8,0,0,1,.61-1.306H81.7l-4.851,6.351a13.207,13.207,0,0,0-19.34,11.139H22.79Zm72.227,9.116,7.96-10.422h15.673a.8.8,0,0,1,.611,1.306L92.207,44.331H83.9a13.14,13.14,0,0,0-2.406-7.068M103.711,0a3.065,3.065,0,0,0-2.438,1.213L86.41,20.675h-82a4.4,4.4,0,0,0-3.379,7.219l44.378,53.1A14.131,14.131,0,0,1,48.7,90.051v26.156a22.905,22.905,0,0,1-12.21,20.256l-9.945,5.252a4.324,4.324,0,0,0-2.038,2.2,4.538,4.538,0,0,0,1.264,5.1,4.327,4.327,0,0,0,2.829.994H86.4a4.325,4.325,0,0,0,2.839-.994,4.541,4.541,0,0,0,1.265-5.1,4.326,4.326,0,0,0-2.038-2.2l-9.945-5.251a22.908,22.908,0,0,1-12.21-20.256V90.051A14.13,14.13,0,0,1,69.6,80.99l44.378-53.1a4.361,4.361,0,0,0,1.031-2.781v-.068a4.416,4.416,0,0,0-4.408-4.369H94.165L106.177,4.948A3.083,3.083,0,0,0,103.729,0Z"/></clipPath></defs><g transform="translate(-1356.014 -585.009)"><path class="b" d="M40,0H160a40,40,0,0,1,40,40V160a40,40,0,0,1-40,40H40A40,40,0,0,1,0,160V40A40,40,0,0,1,40,0Z" transform="translate(1356.014 585.009)"/><g transform="translate(1399.013 610.004)"><g class="c"><path class="a" d="M-57.823,75.54,57.755,225.228,172.521,74.484,56.943-75.2Z"/></g></g></g></svg>