<svg xmlns="http://www.w3.org/2000/svg" xmlns:xlink="http://www.w3.org/1999/xlink" width="559.998" height="199.996" viewBox="0 0 559.998 199.996"><defs><style>.a{fill:url(#a);}.b{fill:url(#b);}.c{fill:url(#c);}.d{clip-path:url(#d);}</style><linearGradient id="a" x1="0.209" y1="0.215" x2="0.791" y2="0.776" gradientUnits="objectBoundingBox"><stop offset="0" stop-color="#fdf1cd"/><stop offset="1" stop-color="#ced2d8"/></linearGradient><linearGradient id="b" x1="0.209" y1="0.215" x2="0.791" y2="0.776" gradientUnits="objectBoundingBox"><stop offset="0" stop-color="#c1f0e6"/><stop offset="1" stop-color="#38d19b"/></linearGradient><linearGradient id="c" x1="0.266" y1="0.983" x2="0.266" y2="0.015" gradientUnits="objectBoundingBox"><stop offset="0" stop-color="#0e555a"/><stop offset="1" stop-color="#010c0d"/></linearGradient><clipPath id="d"><path class="a" d="M37.814,142.729l4.832-2.55a22.907,22.907,0,0,0,12.212-20.257V89.145a2.639,2.639,0,0,1,5.279,0v30.777a22.909,22.909,0,0,0,12.212,20.257l4.832,2.55a.593.593,0,0,1-.277,1.118H38.092a.593.593,0,0,1-.278-1.118M70.7,36.078a8.81,8.81,0,0,1,8.788,8.253h-.009c.016.227.025.456.025.684a8.8,8.8,0,0,1-17.6,0c0-.232.009-.462.026-.684H61.91A8.81,8.81,0,0,1,70.7,36.078M9.264,28.147a.8.8,0,0,1,.61-1.306H81.7l-4.851,6.351a13.207,13.207,0,0,0-19.34,11.139H22.79Zm72.227,9.116,7.96-10.422h15.673a.8.8,0,0,1,.611,1.306L92.207,44.331H83.9a13.14,13.14,0,0,0-2.406-7.068M103.711,0a3.065,3.065,0,0,0-2.438,1.213L86.41,20.675h-82a4.4,4.4,0,0,0-3.379,7.219l44.378,53.1A14.131,14.131,0,0,1,48.7,90.051v26.156a22.905,22.905,0,0,1-12.21,20.256l-9.945,5.252a4.324,4.324,0,0,0-2.038,2.2,4.538,4.538,0,0,0,1.264,5.1,4.327,4.327,0,0,0,2.829.994H86.4a4.325,4.325,0,0,0,2.839-.994,4.541,4.541,0,0,0,1.265-5.1,4.326,4.326,0,0,0-2.038-2.2l-9.945-5.251a22.908,22.908,0,0,1-12.21-20.256V90.051A14.13,14.13,0,0,1,69.6,80.99l44.378-53.1a4.361,4.361,0,0,0,1.031-2.781v-.068a4.416,4.416,0,0,0-4.408-4.369H94.165L106.177,4.948A3.083,3.083,0,0,0,103.729,0Z"/></clipPath></defs><g transform="translate(-156.01 -726)"><path class="b" d="M-2052,138.166V4.86q0-2.776,2.48-2.789c6.942-.034,10.414-.05,17.357-.079,7.6-.033,13.426,2.219,17.454,6.589s6.024,10.281,5.988,17.877l-.1,20.508a17.592,17.592,0,0,1-3.572,10.768,22.171,22.171,0,0,1-7.249,6.649q-.741.227-.745,1.262a.94.94,0,0,0,.859,1.049,13.03,13.03,0,0,1,7.57,4.1c2.252,2.321,3.367,5.913,3.343,10.8-.04,8.451-.059,12.676-.1,21.127-.04,8.349-1.9,15.082-5.571,20.395s-9.148,9-16.4,11.114c-7.583,2.205-11.361,3.385-18.886,5.9a3.143,3.143,0,0,1-.978.184C-2051.518,140.311-2052,139.6-2052,138.166Zm21.233-61.026c-1.23.206-1.845.309-3.075.518a1.384,1.384,0,0,0-1.232,1.546l-.089,37.666c0,.89.4,1.227,1.22,1.015.734-.191,1.1-.285,1.836-.473a8.638,8.638,0,0,0,4.357-3,8.344,8.344,0,0,0,2.041-5.528q.043-12.564.086-25.126a7.939,7.939,0,0,0-1.459-5.188,3.712,3.712,0,0,0-2.958-1.491A4.426,4.426,0,0,0-2030.767,77.14Zm-1.69-57.877-1.237.051q-1.239.053-1.24,1.388l-.092,38.467c0,.891.407,1.28,1.229,1.172l1.231-.161a6.794,6.794,0,0,0,4.69-2.64,9.021,9.021,0,0,0,1.745-5.648q.043-12.906.087-25.814a7.225,7.225,0,0,0-1.654-5.169,5.693,5.693,0,0,0-4.349-1.654C-2032.182,19.254-2032.319,19.257-2032.458,19.263Zm298.6,120.863c-4.856-1.62-7.29-2.4-12.168-3.891a3.229,3.229,0,0,1-2.448-3.411q-.153-64.077-.309-128.153-.005-2.67,2.473-2.659c4.959.022,7.439.034,12.4.058q2.479.011,2.479,2.788V138.166c0,1.432-.483,2.144-1.449,2.144A3.132,3.132,0,0,1-1733.859,140.126Zm-42.208-10.188a30.734,30.734,0,0,1-8.09-3.323,26.919,26.919,0,0,1-6.886-5.595,27.545,27.545,0,0,1-6.91-18.579c-.042-7.584-.063-11.375-.106-18.958a1.8,1.8,0,0,1,1.476-1.875c4.8-1.083,7.2-1.62,11.99-2.695a3.673,3.673,0,0,1,1.113-.094,2.969,2.969,0,0,1,1.922,1.145,3.492,3.492,0,0,1,.815,2.243c.043,8.809.066,13.213.111,22.022a19.207,19.207,0,0,0,.9,6.305,4.424,4.424,0,0,0,3.467,2.977c1.807.384,2.975-.1,3.5-1.465a17.741,17.741,0,0,0,.773-6.122c-.018-4.018-.027-6.027-.046-10.046a68.175,68.175,0,0,0-.664-10.4,24.153,24.153,0,0,0-3-7.931,59.831,59.831,0,0,0-7.588-9.9c-4.478-4.925-7.7-8.579-9.651-11.086a26.627,26.627,0,0,1-4.383-8.243,38.891,38.891,0,0,1-1.49-11.521c-.031-5.633-.047-8.451-.078-14.085-.04-7.2,2.2-12.947,6.724-17.183A20.992,20.992,0,0,1-1777.317,0a22.891,22.891,0,0,1,8.067,1.472,18.7,18.7,0,0,1,6.837,4.365c4.562,4.638,6.851,10.959,6.876,18.764.022,6.893.032,10.339.054,17.233a2.44,2.44,0,0,1-.489,1.468,1.649,1.649,0,0,1-1.232.739c-4.788,1.026-7.182,1.528-11.973,2.524a2.572,2.572,0,0,1-2.537-.61,3.3,3.3,0,0,1-1.062-2.506c-.035-7.369-.052-11.052-.085-18.421a18.391,18.391,0,0,0-.9-6.256,3.513,3.513,0,0,0-3.481-2.39,3.258,3.258,0,0,0-3.4,2.152,16.136,16.136,0,0,0-.9,6.094c.02,3.8.029,5.7.048,9.5a34.773,34.773,0,0,0,.781,7.557,25.331,25.331,0,0,0,3.316,7.429,69.977,69.977,0,0,0,7.77,9.8,59.8,59.8,0,0,1,11.35,17.05,46.955,46.955,0,0,1,3.44,17.929c.021,6.847.032,10.272.053,17.12.024,7.815-2.212,13.544-6.683,16.875a14.514,14.514,0,0,1-8.915,2.786A24.18,24.18,0,0,1-1776.066,129.939Zm-228.072-5.157q.3-60.2.6-120.392a2.224,2.224,0,0,1,2.492-2.516c7.59-.026,11.384-.037,18.974-.058a23.922,23.922,0,0,1,11.21,2.59,21.162,21.162,0,0,1,7.9,6.79,15.423,15.423,0,0,1,2.868,9q-.075,14.326-.15,28.65-.036,6.812-1.671,10.682a16.5,16.5,0,0,1-4.383,6.237,3.1,3.1,0,0,0-1.259,3.067q4.064,23.862,8.2,47.71c0,.188,0,.282,0,.469-.007,1.33-.8,2.1-2.377,2.326-5.086.726-7.625,1.123-12.7,1.982a3.305,3.305,0,0,1-2.109-.237,1.8,1.8,0,0,1-.984-1.508q-3.25-22.434-6.447-44.876c-.24-1.345-.733-1.978-1.476-1.894a1.326,1.326,0,0,0-1,.661,3.185,3.185,0,0,0-.381,1.688q-.127,23.021-.256,46.043a3.607,3.607,0,0,1-.444,1.912,2.24,2.24,0,0,1-1.552.918c-5.055,1.012-7.578,1.552-12.615,2.7a3.756,3.756,0,0,1-.825.1C-2003.6,126.825-2004.145,126.147-2004.138,124.781ZM-1983.4,17.576l-1.364.038a1.877,1.877,0,0,0-1.118.4,1.087,1.087,0,0,0-.5.866q-.1,18.39-.2,36.777a.936.936,0,0,0,.492.809,1.706,1.706,0,0,0,1.113.266l1.365-.12a6.3,6.3,0,0,0,4.663-2.441,9.907,9.907,0,0,0,1.709-6.136l.139-24.977a5.08,5.08,0,0,0-1.776-3.912,6.122,6.122,0,0,0-4.289-1.569C-1983.243,17.573-1983.319,17.574-1983.4,17.576Zm176.25,104.063c-4.971-.862-7.459-1.26-12.442-1.994a2.544,2.544,0,0,1-2.5-2.711q-.3-56.41-.591-112.819-.012-2.35,2.467-2.345c4.961.011,7.441.017,12.4.03a2.179,2.179,0,0,1,2.495,2.411q.322,57.732.646,115.461c.008,1.359-.583,2.034-1.77,2.034A4.131,4.131,0,0,1-1807.145,121.639Zm-145.967-5.784q.275-55.89.55-111.78.011-2.328,2.491-2.333c4.961-.009,7.442-.013,12.4-.02q2.48,0,2.472,2.288-.212,55-.424,110.008c-.006,1.529-.844,2.363-2.511,2.521-5,.471-7.5.74-12.5,1.339a4.56,4.56,0,0,1-.54.034C-1952.471,117.912-1953.118,117.23-1953.112,115.855Zm101.806.154c-8.058-.66-12.093-.909-20.164-1.24-1.673-.069-2.508-.848-2.511-2.356q-.091-54.23-.182-108.459,0-2.258,2.477-2.258c7.988.005,11.982.008,19.969.019a24.709,24.709,0,0,1,8.192,1.391,20.708,20.708,0,0,1,6.84,3.954,20.69,20.69,0,0,1,4.871,6.549,22.721,22.721,0,0,1,2.035,9.936q.183,36.717.365,73.434a21.631,21.631,0,0,1-1.576,9.026,16.358,16.358,0,0,1-5.333,6.489,19.966,19.966,0,0,1-12.26,3.631Q-1849.907,116.125-1851.306,116.009Zm-5.445-98.353q.131,41.005.262,82.012c0,.76.421,1.164,1.254,1.218,1.05.068,1.575.1,2.625.176a4.493,4.493,0,0,0,4.241-1.864,8.134,8.134,0,0,0,1.479-4.931q-.139-35.552-.279-71.1a7.388,7.388,0,0,0-1.508-4.666,5.146,5.146,0,0,0-4.23-1.941l-2.607-.029h-.029C-1856.351,16.53-1856.754,16.907-1856.751,17.656Zm-71.365,95.762q.18-54.715.36-109.429.007-2.278,2.488-2.282c4.018,0,6.029-.006,10.048-.008a2.42,2.42,0,0,1,2.6,2.034q6.889,26.437,13.861,52.85.12,1.127,1.121,1.12a.756.756,0,0,0,.623-.342,1.487,1.487,0,0,0,.25-.9q.014-26.256.026-52.514V3.381a2.527,2.527,0,0,1,.248-1.3c.165-.263.577-.395,1.242-.395,4.961,0,7.443,0,12.4,0q2.478,0,2.482,2.256.06,54.142.118,108.284c0,1.506-.833,2.234-2.5,2.2-3.761-.068-5.642-.084-9.4-.081a2.626,2.626,0,0,1-2.758-2.018q-7.311-25.94-14.579-51.891c-.247-.747-.621-1.118-1.119-1.108-.582.012-.874.434-.876,1.263q-.049,25.945-.1,51.893v.565a2.593,2.593,0,0,1-.254,1.31c-.168.272-.585.42-1.254.449-5.011.216-7.519.357-12.527.7-.118.008-.232.012-.341.012A1.88,1.88,0,0,1-1928.116,113.418Z" transform="translate(2447.44 762)"/><g transform="translate(-1200.004 140.991)"><path class="c" d="M40,0H160a40,40,0,0,1,40,40V160a40,40,0,0,1-40,40H40A40,40,0,0,1,0,160V40A40,40,0,0,1,40,0Z" transform="translate(1356.014 585.009)"/><g transform="translate(1399.013 610.004)"><g class="d"><path class="a" d="M-57.823,75.54,57.755,225.228,172.521,74.484,56.943-75.2Z"/></g></g></g></g></svg>