<svg xmlns="http://www.w3.org/2000/svg" xmlns:xlink="http://www.w3.org/1999/xlink" width="681.386" height="199.996" viewBox="0 0 681.386 199.996"><defs><style>.a{fill:url(#a);}.b{fill:url(#b);}.c{clip-path:url(#d);}</style><linearGradient id="a" x1="0.209" y1="0.215" x2="0.791" y2="0.776" gradientUnits="objectBoundingBox"><stop offset="0" stop-color="#fdf1cd"/><stop offset="1" stop-color="#ced2d8"/></linearGradient><linearGradient id="b" x1="0.266" y1="0.983" x2="0.266" y2="0.015" gradientUnits="objectBoundingBox"><stop offset="0" stop-color="#0e555a"/><stop offset="1" stop-color="#010c0d"/></linearGradient><clipPath id="d"><path class="a" d="M38.014,143.483l4.858-2.563a23.028,23.028,0,0,0,12.277-20.364V89.616a2.653,2.653,0,0,1,5.307,0v30.94A23.03,23.03,0,0,0,72.731,140.92l4.858,2.563a.6.6,0,0,1-.278,1.124H38.293a.6.6,0,0,1-.279-1.124M71.069,36.269a8.856,8.856,0,0,1,8.834,8.3h-.009c.016.228.025.458.025.688a8.846,8.846,0,0,1-17.693,0c0-.233.009-.464.026-.688h-.016a8.856,8.856,0,0,1,8.832-8.3M9.313,28.3a.8.8,0,0,1,.613-1.313H82.132l-4.877,6.385a13.277,13.277,0,0,0-19.442,11.2H22.91ZM81.922,37.46l8-10.477h15.756a.8.8,0,0,1,.614,1.313l-13.6,16.27H84.34a13.209,13.209,0,0,0-2.419-7.105M104.259,0a3.082,3.082,0,0,0-2.451,1.219L86.867,20.784H4.433a4.422,4.422,0,0,0-3.4,7.257L45.649,81.418a14.206,14.206,0,0,1,3.3,9.109v26.294a23.026,23.026,0,0,1-12.275,20.363l-10,5.28a4.347,4.347,0,0,0-2.049,2.212A4.562,4.562,0,0,0,25.9,149.8a4.35,4.35,0,0,0,2.844,1H86.858a4.348,4.348,0,0,0,2.854-1,4.565,4.565,0,0,0,1.272-5.123,4.349,4.349,0,0,0-2.049-2.213l-10-5.279a23.029,23.029,0,0,1-12.275-20.363V90.527a14.2,14.2,0,0,1,3.305-9.109l44.612-53.377a4.384,4.384,0,0,0,1.036-2.8v-.068a4.44,4.44,0,0,0-4.431-4.392H94.662L106.738,4.974A3.1,3.1,0,0,0,104.277,0Z" transform="translate(0)"/></clipPath></defs><g transform="translate(-192 -301)"><path class="b" d="M-3819.39-3633.848c-1.866-11.519-4.734-42.481-5.916-56.327-.855-9.974-1.98-17.6-7.9-17.6-2.871,0-5.089,1.488-6.592,4.424-1.586,3.1-2.39,7.833-2.39,14.078v25.687c0,7.047,2.216,8.792,4,10.193,1.132.893,2.111,1.662,2.111,3.639,0,1.517-1.147,3.773-4.312,3.773-1.014,0-2.069-.058-3.292-.124h-.009c-1.94-.1-4.351-.236-8.017-.236s-6.077.131-8.015.236h-.011c-1.223.066-2.278.124-3.292.124-3.047,0-4.132-1.949-4.132-3.773,0-1.976.949-2.747,2.049-3.638,1.729-1.4,3.879-3.147,3.879-10.194v-34.669c0-5.266-2.143-6.372-4.034-7.349-1.5-.774-2.792-1.442-2.792-3.969,0-1.372.72-2.46,2.488-3.753a85.283,85.283,0,0,1,9.188-5.229c8.267-4.44,9.07-4.851,10.419-4.851,3.344,0,3.772,3.552,3.772,6.646v6.469a23.891,23.891,0,0,1,7.131-9.861,16.939,16.939,0,0,1,10.652-3.612c6.322,0,11.052,3.235,14.061,9.615,2.563,5.44,3.354,11.983,3.725,16.431,1.9,22.918,2.88,28.754,5.566,59.816.927,13.909,7.31,19.077,12.115,18.452,4.255-.552,6-2.945,6.343-3.485a12.419,12.419,0,0,1-2.373.241c-4.071,0-6.989-2.323-7.881-6.519-1.047-4.927,2.252-9.675,8.437-10.989,5.282-1.123,9.513,1.043,10.585,6.086a8.166,8.166,0,0,1,.178,1.849c.115,6.042-5.105,18.7-19.285,19.507q-.79.045-1.562.044A25.174,25.174,0,0,1-3819.39-3633.848Zm136.73-15.881-3.593-10.059c-1.969-5.6-2.875-8.573-2.875-10.24a3.741,3.741,0,0,1,3.594-3.951c2.12,0,3.184,1.321,4.85,3.592,6.36,9.086,12.858,16.527,22.095,16.527,5.906,0,9.521-3.362,9.521-7.9,0-6.511-4.479-9.7-15.988-14.551s-22.454-11.936-22.454-25.868c0-12.417,9.1-21.556,22.275-21.556,6.058,0,9.737,2.335,11.856,2.335,2.271,0,2.266-3.053,5.749-3.053,2.271,0,3.392,2.114,5.209,5.748l4.312,8.623c1.363,2.573,2.874,6.446,2.874,8.263a3.445,3.445,0,0,1-3.772,3.413c-1.817,0-3.033-1.236-4.85-3.053-6.511-7.269-13.165-13.115-19.221-13.115-4.24,0-7.365,2.889-7.365,6.826,0,5.6,3.732,8.145,15.089,13.293,12.114,5.149,23.354,12.116,23.354,26.048,0,15.143-10.518,23.892-25.51,23.892-7.419,0-11.56-3.054-13.832-3.054-2.877,0-2.8,3.952-6.288,3.952C-3680.356-3643.62-3681.6-3646.4-3682.66-3649.728Zm-115.508-33.052c0-24.531,12.775-41.676,29.281-41.676a19.544,19.544,0,0,1,14.731,6.288v-19.042c0-9.541-7.9-5.26-7.9-11.317,0-2.877,2.277-4.288,12.575-8.982,8.63-4.24,9.264-4.49,10.778-4.49,2.726,0,3.772,2.748,3.772,5.927v87.125c0,9.539,7.006,7.274,7.006,12.575,0,3.179-2.771,4.629-11.857,8.263-7.722,3.029-9.263,3.772-10.778,3.772-2.877,0-3.592-3.343-3.592-6.826v-4.85c-3.938,6.966-10.372,11.857-19.761,11.857C-3787.243-3644.157-3798.167-3658.552-3798.167-3682.78Zm20.12-5.569c0,18.928,6.176,30.539,13.293,30.539,6.36,0,10.6-9.073,10.6-22.1v-7.544c0-16.051-5.43-27.125-12.4-27.125C-3773.668-3714.576-3778.048-3703.946-3778.048-3688.349Zm-243.245,42.035c-6.966,0-9.641.359-12.215.359-3.029,0-4.492-1.8-4.492-3.771,0-5.6,6.108-2.693,6.108-13.294v-74.729c0-10.448-6.108-7.663-6.108-13.113,0-2.271,1.462-3.772,4.492-3.772,2.574,0,5.249.359,12.215.359,6.813,0,13.833-.719,21.556-.719,18.626,0,30.179,11.764,30.179,27.665,0,9.389-4.358,18.82-13.293,22.454,11.661,4.694,18.863,15,18.863,28.024,0,17.414-10.16,31.078-32.875,31.078C-4003.677-3645.774-4014.934-3646.313-4021.293-3646.313Zm10.239-48.862v31.616c0,4.846,1.526,7.365,6.826,7.365h2.515c9.54,0,14.91-7.938,14.91-20.658,0-15.143-6.6-21.916-15.988-21.916h-4.491C-4009.553-3698.768-4011.054-3698.2-4011.054-3695.175Zm0-42.034v24.43c0,2.876.991,3.772,3.414,3.772h3.771c6.966,0,12.037-5.283,12.037-17.245,0-12.72-5.771-18.323-11.677-18.323h-1.258C-4008.7-3744.575-4011.054-3742.662-4011.054-3737.209Zm398.813,90.9c-6.058,0-8.744.36-11.318.36-3.028,0-4.131-1.955-4.131-3.772,0-5.3,5.927-2.172,5.927-13.833v-34.669c0-9.54-6.825-5.563-6.825-11.317,0-3.029,3.016-4.44,11.5-8.983,8.178-4.24,9.236-4.85,10.6-4.85,3.029,0,3.774,2.748,3.774,5.928v53.891c0,11.66,6.107,8.532,6.107,13.833,0,1.665-1.283,3.772-4.311,3.772C-3603.5-3645.954-3606.185-3646.313-3612.242-3646.313Zm-95.568,0c-6.057,0-8.742.36-11.317.36-3.029,0-4.132-1.955-4.132-3.772,0-5.3,5.928-2.172,5.928-13.833v-34.669c0-9.54-6.826-5.563-6.826-11.317,0-3.029,3.017-4.44,11.5-8.983,8.177-4.24,9.235-4.85,10.6-4.85,3.028,0,3.773,2.748,3.773,5.928v53.891c0,11.66,6.107,8.532,6.107,13.833,0,1.665-1.281,3.772-4.311,3.772C-3699.067-3645.954-3701.753-3646.313-3707.81-3646.313Zm-179.29,0c-6.058,0-8.923.36-11.5.36-3.029,0-3.952-1.955-3.952-3.772,0-5.3,5.749-2.172,5.749-13.833v-34.669c0-9.54-6.647-5.563-6.647-11.317,0-3.029,3.016-4.44,11.5-8.983,8.178-4.24,9.236-4.85,10.6-4.85,3.029,0,3.773,2.748,3.773,5.928v53.891c0,11.66,5.927,8.532,5.927,13.833a3.754,3.754,0,0,1-4.131,3.772C-3878.357-3645.954-3881.042-3646.313-3887.1-3646.313Zm-59.64,0c-6.057,0-8.383.359-10.958.359a3.763,3.763,0,0,1-4.132-3.771c0-5,5.569-2.172,5.569-13.833v-34.669c0-9.389-6.287-5.563-6.287-11.318,0-2.876,2.837-4.438,11.317-8.981,7.874-4.24,8.753-4.85,10.419-4.85,3.331,0,3.592,4.072,3.592,6.646v12.575c3.181-11.358,10.5-19.761,19.582-19.761,5.147,0,10.239,3.058,10.239,7.9,0,3.484-1.917,8.691-4.491,15.808-1.061,2.877-2.041,4.312-4.312,4.312-2.12,0-3.459-1.586-4.671-4.312-2.12-4.694-3.78-5.927-5.749-5.927-5,0-10.6,8.64-10.6,28.023v14.551c0,11.66,7.006,8.381,7.006,13.833a3.852,3.852,0,0,1-4.132,3.771C-3937.223-3645.955-3940.077-3646.313-3946.74-3646.313Zm321.563-98.442c0-7.268,6.8-14.37,14.371-14.37,5.3,0,9.521,3.559,9.521,9.161,0,7.117-6.649,14.011-14.371,14.011C-3621.107-3735.953-3625.176-3739.455-3625.176-3744.755Zm-95.568,0c0-7.268,6.8-14.37,14.371-14.37,5.3,0,9.521,3.559,9.521,9.161,0,7.117-6.827,14.011-14.55,14.011C-3716.854-3735.953-3720.744-3739.455-3720.744-3744.755Zm-179.29,0c0-7.268,6.8-14.37,14.372-14.37,5.3,0,9.521,3.559,9.521,9.161,0,7.117-6.827,14.011-14.551,14.011C-3896.144-3735.953-3900.034-3739.455-3900.034-3744.755Z" transform="translate(4470 4102.262)"/><path class="b" d="M40,0H160a40,40,0,0,1,40,40V160a40,40,0,0,1-40,40H40A40,40,0,0,1,0,160V40A40,40,0,0,1,40,0Z" transform="translate(192 301)"/><g class="c" transform="translate(234 326)"><path class="a" d="M-57.823,76.337,58.366,226.816,173.738,75.275,57.549-75.2Z" transform="translate(-0.306 -0.397)"/></g></g></svg>